{
	"asset":{
		"generator":"Khronos glTF Blender I/O v3.6.27",
		"version":"2.0"
	},
	"scene":0,
	"scenes":[
		{
			"name":"Scene",
			"nodes":[
				3,
				7,
				8
			]
		}
	],
	"nodes":[
		{
			"name":"Marul",
			"rotation":[
				-0.1614386886358261,
				0.6031532883644104,
				0.2763742208480835,
				0.7305895090103149
			],
			"scale":[
				7.202452659606934,
				7.202451705932617,
				7.202451705932617
			],
			"translation":[
				0,
				-3.0517578125e-05,
				0
			]
		},
		{
			"children":[
				0
			],
			"name":"RootNode",
			"translation":[
				0,
				-3.0517578125e-05,
				0
			]
		},
		{
			"children":[
				1
			],
			"name":"ef166ee98f0448d6ac2541732ab311d7.fbx",
			"rotation":[
				0.70710688829422,
				0,
				0,
				0.7071066498756409
			],
			"scale":[
				0.009999999776482582,
				0.010000000707805157,
				0.010000000707805157
			]
		},
		{
			"children":[
				2
			],
			"name":"Sketchfab_model",
			"rotation":[
				-0.70710688829422,
				0,
				0,
				0.7071066498756409
			],
			"translation":[
				0,
				2.573709487915039,
				1.5556819438934326
			]
		},
		{
			"name":"Marul.001",
			"rotation":[
				-0.1614386886358261,
				0.6031532883644104,
				0.2763741910457611,
				0.7305895090103149
			],
			"scale":[
				7.20245361328125,
				7.202452182769775,
				7.202452182769775
			],
			"translation":[
				0,
				-3.0517576306010596e-05,
				0
			]
		},
		{
			"children":[
				4
			],
			"name":"RootNode.001",
			"translation":[
				0,
				-3.0517576306010596e-05,
				0
			]
		},
		{
			"children":[
				5
			],
			"name":"ef166ee98f0448d6ac2541732ab311d7.fbx.001",
			"rotation":[
				0.70710688829422,
				0,
				0,
				0.7071066498756409
			],
			"scale":[
				0.009999999776482582,
				0.010000000707805157,
				0.010000000707805157
			]
		},
		{
			"children":[
				6
			],
			"name":"Sketchfab_model.001",
			"rotation":[
				-0.70710688829422,
				0,
				0,
				0.7071066498756409
			],
			"scale":[
				0.6894902586936951,
				0.6894903182983398,
				0.6894903182983398
			],
			"translation":[
				-0.015435539186000824,
				2.6607131958007812,
				1.5194706916809082
			]
		},
		{
			"mesh":0,
			"name":"top",
			"translation":[
				0,
				3.355424404144287,
				0.9508165121078491
			]
		}
	],
	"materials":[
		{
			"doubleSided":true,
			"name":"shelf",
			"pbrMetallicRoughness":{
				"baseColorFactor":[
					0.018092643469572067,
					0.014413771219551563,
					0.0258653424680233,
					1
				],
				"metallicFactor":0,
				"roughnessFactor":0.5
			}
		},
		{
			"doubleSided":true,
			"name":"tank",
			"pbrMetallicRoughness":{
				"baseColorFactor":[
					0.10338376462459564,
					0.10338376462459564,
					0.10338376462459564,
					1
				],
				"metallicFactor":0,
				"roughnessFactor":0.5
			}
		},
		{
			"doubleSided":true,
			"emissiveFactor":[
				0.7952350386232752,
				0.840243959055357,
				0.9000000953674316
			],
			"name":"lights",
			"pbrMetallicRoughness":{
				"baseColorFactor":[
					0.76161128282547,
					0.8000000715255737,
					0.7880880236625671,
					1
				],
				"metallicFactor":0,
				"roughnessFactor":0.5
			}
		},
		{
			"doubleSided":true,
			"name":"base",
			"pbrMetallicRoughness":{
				"baseColorFactor":[
					0.800000011920929,
					0.800000011920929,
					0.800000011920929,
					1
				],
				"metallicFactor":0.875,
				"roughnessFactor":0.5
			}
		},
		{
			"alphaCutoff":0.0949999988079071,
			"alphaMode":"MASK",
			"doubleSided":true,
			"name":"Material.002",
			"pbrMetallicRoughness":{}
		}
	],
	"meshes":[
		{
			"name":"Cube.018",
			"primitives":[
				{
					"attributes":{
						"POSITION":0,
						"NORMAL":1,
						"TEXCOORD_0":2
					},
					"indices":3,
					"material":0
				},
				{
					"attributes":{
						"POSITION":4,
						"NORMAL":5,
						"TEXCOORD_0":6
					},
					"indices":7,
					"material":1
				},
				{
					"attributes":{
						"POSITION":8,
						"NORMAL":9,
						"TEXCOORD_0":10
					},
					"indices":11,
					"material":2
				},
				{
					"attributes":{
						"POSITION":12,
						"NORMAL":13,
						"TEXCOORD_0":14
					},
					"indices":15,
					"material":3
				},
				{
					"attributes":{
						"POSITION":16,
						"NORMAL":17,
						"TEXCOORD_0":18
					},
					"indices":19,
					"material":4
				}
			]
		}
	],
	"accessors":[
		{
			"bufferView":0,
			"componentType":5126,
			"count":10140,
			"max":[
				0.44999998807907104,
				0.03999999538064003,
				0.7523134350776672
			],
			"min":[
				-0.44999998807907104,
				-1.4606837034225464,
				-0.7523134350776672
			],
			"type":"VEC3"
		},
		{
			"bufferView":1,
			"componentType":5126,
			"count":10140,
			"type":"VEC3"
		},
		{
			"bufferView":2,
			"componentType":5126,
			"count":10140,
			"type":"VEC2"
		},
		{
			"bufferView":3,
			"componentType":5123,
			"count":22518,
			"type":"SCALAR"
		},
		{
			"bufferView":4,
			"componentType":5126,
			"count":5933,
			"max":[
				0.3869496285915375,
				-0.031069159507751465,
				0.5672468543052673
			],
			"min":[
				-0.2433347851037979,
				-1.9315624237060547,
				-0.776910662651062
			],
			"type":"VEC3"
		},
		{
			"bufferView":5,
			"componentType":5126,
			"count":5933,
			"type":"VEC3"
		},
		{
			"bufferView":6,
			"componentType":5126,
			"count":5933,
			"type":"VEC2"
		},
		{
			"bufferView":7,
			"componentType":5123,
			"count":11160,
			"type":"SCALAR"
		},
		{
			"bufferView":8,
			"componentType":5126,
			"count":1920,
			"max":[
				0.2506227493286133,
				-0.0475546270608902,
				0.6111019849777222
			],
			"min":[
				-0.2505975067615509,
				-1.1718086004257202,
				-0.6118043065071106
			],
			"type":"VEC3"
		},
		{
			"bufferView":9,
			"componentType":5126,
			"count":1920,
			"type":"VEC3"
		},
		{
			"bufferView":10,
			"componentType":5126,
			"count":1920,
			"type":"VEC2"
		},
		{
			"bufferView":11,
			"componentType":5123,
			"count":3600,
			"type":"SCALAR"
		},
		{
			"bufferView":12,
			"componentType":5126,
			"count":384,
			"max":[
				0.3764783442020416,
				-0.032632410526275635,
				0.7304735779762268
			],
			"min":[
				-0.3920281231403351,
				-1.9387478828430176,
				-0.7254593372344971
			],
			"type":"VEC3"
		},
		{
			"bufferView":13,
			"componentType":5126,
			"count":384,
			"type":"VEC3"
		},
		{
			"bufferView":14,
			"componentType":5126,
			"count":384,
			"type":"VEC2"
		},
		{
			"bufferView":15,
			"componentType":5123,
			"count":576,
			"type":"SCALAR"
		},
		{
			"bufferView":16,
			"componentType":5126,
			"count":40014,
			"max":[
				0.3113154172897339,
				-0.5827912092208862,
				0.6894240975379944
			],
			"min":[
				-0.29666557908058167,
				-1.3706021308898926,
				-0.5654091835021973
			],
			"type":"VEC3"
		},
		{
			"bufferView":17,
			"componentType":5126,
			"count":40014,
			"type":"VEC3"
		},
		{
			"bufferView":18,
			"componentType":5126,
			"count":40014,
			"type":"VEC2"
		},
		{
			"bufferView":19,
			"componentType":5123,
			"count":77112,
			"type":"SCALAR"
		}
	],
	"bufferViews":[
		{
			"buffer":0,
			"byteLength":121680,
			"byteOffset":0,
			"target":34962
		},
		{
			"buffer":0,
			"byteLength":121680,
			"byteOffset":121680,
			"target":34962
		},
		{
			"buffer":0,
			"byteLength":81120,
			"byteOffset":243360,
			"target":34962
		},
		{
			"buffer":0,
			"byteLength":45036,
			"byteOffset":324480,
			"target":34963
		},
		{
			"buffer":0,
			"byteLength":71196,
			"byteOffset":369516,
			"target":34962
		},
		{
			"buffer":0,
			"byteLength":71196,
			"byteOffset":440712,
			"target":34962
		},
		{
			"buffer":0,
			"byteLength":47464,
			"byteOffset":511908,
			"target":34962
		},
		{
			"buffer":0,
			"byteLength":22320,
			"byteOffset":559372,
			"target":34963
		},
		{
			"buffer":0,
			"byteLength":23040,
			"byteOffset":581692,
			"target":34962
		},
		{
			"buffer":0,
			"byteLength":23040,
			"byteOffset":604732,
			"target":34962
		},
		{
			"buffer":0,
			"byteLength":15360,
			"byteOffset":627772,
			"target":34962
		},
		{
			"buffer":0,
			"byteLength":7200,
			"byteOffset":643132,
			"target":34963
		},
		{
			"buffer":0,
			"byteLength":4608,
			"byteOffset":650332,
			"target":34962
		},
		{
			"buffer":0,
			"byteLength":4608,
			"byteOffset":654940,
			"target":34962
		},
		{
			"buffer":0,
			"byteLength":3072,
			"byteOffset":659548,
			"target":34962
		},
		{
			"buffer":0,
			"byteLength":1152,
			"byteOffset":662620,
			"target":34963
		},
		{
			"buffer":0,
			"byteLength":480168,
			"byteOffset":663772,
			"target":34962
		},
		{
			"buffer":0,
			"byteLength":480168,
			"byteOffset":1143940,
			"target":34962
		},
		{
			"buffer":0,
			"byteLength":320112,
			"byteOffset":1624108,
			"target":34962
		},
		{
			"buffer":0,
			"byteLength":154224,
			"byteOffset":1944220,
			"target":34963
		}
	],
	"buffers":[
		{
			"byteLength":2098444,
			"uri":"digitalTwinFinal.bin"
		}
	]
}
